<svg xmlns="http://www.w3.org/2000/svg" fill="none" viewBox="0 0 1065 1045">
  <g stroke="#fff" clip-path="url(#a)">
    <path stroke-width="113.386" d="M63.0362 1562.44S25.4913 656.378 246.216 527.129c242.951-142.264 434.669 86.818 583.963-38.755 195.651-164.568 167.348-746.822 167.348-746.822"/>
    <path fill="#fff" stroke-width="26.4567" d="M312.5 1013.13c-52.092 0-94.488-42.395-94.488-94.487 0-52.094 42.396-94.489 94.488-94.489s94.488 42.395 94.488 94.489c0 52.092-42.396 94.487-94.488 94.487Zm0-129.305c-19.213 0 60.642 72.678-34.817 34.818-17.861-7.084 15.604 34.818 34.817 34.818 19.214 0 34.818-15.605 34.818-34.818 0-19.214-15.604-34.818-34.818-34.818ZM729.116 249.14c-52.092 0-94.488-42.395-94.488-94.487 0-52.094 42.396-94.4891 94.488-94.4891s94.488 42.3951 94.488 94.4891c0 52.092-42.396 94.487-94.488 94.487Zm0-129.305c-19.213 0 56.601 72.173-34.817 34.818-17.787-7.268 15.604 34.817 34.817 34.817 19.214 0 34.818-15.604 34.818-34.817 0-19.214-15.604-34.818-34.818-34.818ZM141.652 391.824c-52.0922 0-94.489-42.395-94.489-94.487 0-52.093 42.3968-94.489 94.489-94.489 52.092 0 94.487 42.396 94.487 94.489 0 52.092-42.395 94.487-94.487 94.487Zm0-129.305c-19.214 0 56.096 68.637-34.818 34.818-18.0082-6.699 15.604 34.818 34.818 34.818s34.817-15.604 34.817-34.818-15.603-34.818-34.817-34.818ZM914.984 841.09c-52.092 0-94.488-42.396-94.488-94.488 0-52.093 42.396-94.489 94.488-94.489s94.486 42.396 94.486 94.489c0 52.092-42.394 94.488-94.486 94.488Zm0-129.306c-19.213 0 56.096 70.91-34.817 34.818-17.858-7.089 15.604 34.818 34.817 34.818 19.214 0 34.818-15.604 34.818-34.818 0-19.213-15.604-34.818-34.818-34.818ZM508.903 796.643c-52.092 0-94.489-42.396-94.489-94.488 0-52.093 42.397-94.488 94.489-94.488 52.092 0 94.488 42.395 94.488 94.488 0 52.092-42.396 94.488-94.488 94.488Zm0-129.306c-19.213 0 63.672 66.112-34.818 34.818-18.311-5.818 15.605 34.818 34.818 34.818 19.214 0 34.818-15.604 34.818-34.818 0-19.213-15.604-34.818-34.818-34.818ZM395.766 232.978c-52.092 0-94.489-42.396-94.489-94.488 0-52.093 42.397-94.4885 94.489-94.4885 52.092 0 94.488 42.3955 94.488 94.4885 0 52.092-42.396 94.488-94.488 94.488Zm0-129.306c-8.451 7.493 49.658 74.417-34.818 34.818-17.397-8.155 15.604 34.818 34.818 34.818s34.818-15.604 34.818-34.818c0-19.213-20.441-47.564-34.818-34.818Z"/>
  </g>
  <defs>
    <clipPath id="a">
      <path fill="#fff" d="M0 0h1064.8v1044.03H0z"/>
    </clipPath>
  </defs>
</svg>
