<svg id="visual" viewBox="0 0 900 600" width="900" height="600" xmlns="http://www.w3.org/2000/svg" xmlns:xlink="http://www.w3.org/1999/xlink" version="1.1"><g stroke-width="1" stroke-linejoin="bevel"><path d="M435.7 325.9L411.9 273.9L413.9 320.1Z" fill="#3a4c39" stroke="#3a4c39"></path><path d="M435.7 325.9L453.3 265.9L411.9 273.9Z" fill="#557053" stroke="#557053"></path><path d="M435.7 325.9L475.3 273.1L453.3 265.9Z" fill="#71966f" stroke="#71966f"></path><path d="M468.7 373.4L457.7 338.1L446.3 386.2Z" fill="#71966f" stroke="#71966f"></path><path d="M435.7 325.9L457.7 338.1L475.3 273.1Z" fill="#4c644a" stroke="#4c644a"></path><path d="M457.7 338.1L465.7 339.2L475.3 273.1Z" fill="#71966f" stroke="#71966f"></path><path d="M427.9 212.6L411.9 273.9L453.3 265.9Z" fill="#71966f" stroke="#71966f"></path><path d="M427.9 212.6L415.3 214.8L411.9 273.9Z" fill="#5e7d5c" stroke="#5e7d5c"></path><path d="M484.7 186.8L427.9 212.6L453.3 265.9Z" fill="#557053" stroke="#557053"></path><path d="M339.6 265.9L371.6 356.1L413.9 320.1Z" fill="#557053" stroke="#557053"></path><path d="M413.9 320.1L446.3 386.2L435.7 325.9Z" fill="#71966f" stroke="#71966f"></path><path d="M457.7 338.1L468.7 373.4L465.7 339.2Z" fill="#4c644a" stroke="#4c644a"></path><path d="M339.6 265.9L413.9 320.1L411.9 273.9Z" fill="#557053" stroke="#557053"></path><path d="M446.3 386.2L457.7 338.1L435.7 325.9Z" fill="#4c644a" stroke="#4c644a"></path><path d="M465.7 339.2L518.1 275.1L475.3 273.1Z" fill="#293528" stroke="#293528"></path><path d="M415.3 214.8L386.3 222.6L411.9 273.9Z" fill="#7ba478" stroke="#7ba478"></path><path d="M559.1 325.9L518.1 275.1L465.7 339.2Z" fill="#688965" stroke="#688965"></path><path d="M475.3 273.1L484.7 186.8L453.3 265.9Z" fill="#5e7d5c" stroke="#5e7d5c"></path><path d="M371.6 356.1L446.3 386.2L413.9 320.1Z" fill="#314030" stroke="#314030"></path><path d="M386.3 222.6L339.6 265.9L411.9 273.9Z" fill="#7ba478" stroke="#7ba478"></path><path d="M545.4 278.9L530.4 268.8L518.1 275.1Z" fill="#314030" stroke="#314030"></path><path d="M528.1 207.8L484.7 186.8L475.3 273.1Z" fill="#293528" stroke="#293528"></path><path d="M467.3 421.5L495.1 379.2L468.7 373.4Z" fill="#5e7d5c" stroke="#5e7d5c"></path><path d="M468.7 373.4L495.1 379.2L465.7 339.2Z" fill="#688965" stroke="#688965"></path><path d="M559.1 325.9L545.4 278.9L518.1 275.1Z" fill="#5e7d5c" stroke="#5e7d5c"></path><path d="M427.9 212.6L404.9 182.8L415.3 214.8Z" fill="#314030" stroke="#314030"></path><path d="M415.3 214.8L404.9 182.8L386.3 222.6Z" fill="#3a4c39" stroke="#3a4c39"></path><path d="M320.6 191.8L280.8 278.9L339.6 265.9Z" fill="#435841" stroke="#435841"></path><path d="M438.7 159.5L404.9 182.8L427.9 212.6Z" fill="#688965" stroke="#688965"></path><path d="M475.3 273.1L518.1 275.1L528.1 207.8Z" fill="#293528" stroke="#293528"></path><path d="M339.6 265.9L317.6 327.2L371.6 356.1Z" fill="#4c644a" stroke="#4c644a"></path><path d="M528.1 207.8L518.1 275.1L530.4 268.8Z" fill="#435841" stroke="#435841"></path><path d="M437.3 450.4L467.3 421.5L446.3 386.2Z" fill="#293528" stroke="#293528"></path><path d="M446.3 386.2L467.3 421.5L468.7 373.4Z" fill="#435841" stroke="#435841"></path><path d="M360.9 413.2L446.3 386.2L371.6 356.1Z" fill="#85b182" stroke="#85b182"></path><path d="M577.4 352.2L559.1 325.9L554.1 397.4Z" fill="#688965" stroke="#688965"></path><path d="M495.1 379.2L559.1 325.9L465.7 339.2Z" fill="#71966f" stroke="#71966f"></path><path d="M526.4 159.5L528.1 207.8L552.1 158.6Z" fill="#435841" stroke="#435841"></path><path d="M589.8 236.9L528.1 207.8L530.4 268.8Z" fill="#85b182" stroke="#85b182"></path><path d="M339.6 265.9L296.2 296.9L317.6 327.2Z" fill="#71966f" stroke="#71966f"></path><path d="M280.8 278.9L296.2 296.9L339.6 265.9Z" fill="#5e7d5c" stroke="#5e7d5c"></path><path d="M495.1 144.3L438.7 159.5L484.7 186.8Z" fill="#4c644a" stroke="#4c644a"></path><path d="M484.7 186.8L438.7 159.5L427.9 212.6Z" fill="#85b182" stroke="#85b182"></path><path d="M341.6 405.4L371.6 356.1L317.6 327.2Z" fill="#688965" stroke="#688965"></path><path d="M341.6 405.4L360.9 413.2L371.6 356.1Z" fill="#314030" stroke="#314030"></path><path d="M260.8 395.4L341.6 405.4L317.6 327.2Z" fill="#3a4c39" stroke="#3a4c39"></path><path d="M337.9 476.5L375.9 431.4L360.9 413.2Z" fill="#293528" stroke="#293528"></path><path d="M360.9 413.2L375.9 431.4L446.3 386.2Z" fill="#7ba478" stroke="#7ba478"></path><path d="M320.6 191.8L339.6 265.9L386.3 222.6Z" fill="#293528" stroke="#293528"></path><path d="M246.2 376.2L260.8 395.4L317.6 327.2Z" fill="#5e7d5c" stroke="#5e7d5c"></path><path d="M341.9 162.5L386.3 222.6L404.9 182.8Z" fill="#85b182" stroke="#85b182"></path><path d="M341.9 162.5L320.6 191.8L386.3 222.6Z" fill="#7ba478" stroke="#7ba478"></path><path d="M375.9 431.4L437.3 450.4L446.3 386.2Z" fill="#85b182" stroke="#85b182"></path><path d="M554.1 397.4L559.1 325.9L495.1 379.2Z" fill="#5e7d5c" stroke="#5e7d5c"></path><path d="M620.4 281.1L589.8 236.9L545.4 278.9Z" fill="#688965" stroke="#688965"></path><path d="M554.1 397.4L495.1 379.2L467.3 421.5Z" fill="#7ba478" stroke="#7ba478"></path><path d="M526.4 159.5L517.7 165.6L528.1 207.8Z" fill="#5e7d5c" stroke="#5e7d5c"></path><path d="M528.1 207.8L517.7 165.6L484.7 186.8Z" fill="#5e7d5c" stroke="#5e7d5c"></path><path d="M515.4 478.7L554.1 397.4L467.3 421.5Z" fill="#5e7d5c" stroke="#5e7d5c"></path><path d="M354.6 110.5L341.9 162.5L404.9 182.8Z" fill="#71966f" stroke="#71966f"></path><path d="M517.7 165.6L495.1 144.3L484.7 186.8Z" fill="#7ba478" stroke="#7ba478"></path><path d="M438.7 159.5L354.6 110.5L404.9 182.8Z" fill="#435841" stroke="#435841"></path><path d="M589.8 236.9L530.4 268.8L545.4 278.9Z" fill="#3a4c39" stroke="#3a4c39"></path><path d="M517.7 165.6L526.4 159.5L495.1 144.3Z" fill="#435841" stroke="#435841"></path><path d="M620.4 281.1L545.4 278.9L559.1 325.9Z" fill="#5e7d5c" stroke="#5e7d5c"></path><path d="M341.9 162.5L306.6 183.6L320.6 191.8Z" fill="#688965" stroke="#688965"></path><path d="M320.6 191.8L306.6 183.6L280.8 278.9Z" fill="#314030" stroke="#314030"></path><path d="M237.8 252.8L263.2 282.1L280.8 278.9Z" fill="#3a4c39" stroke="#3a4c39"></path><path d="M280.8 278.9L263.2 282.1L296.2 296.9Z" fill="#71966f" stroke="#71966f"></path><path d="M426.7 490.5L483.1 466.5L437.3 450.4Z" fill="#4c644a" stroke="#4c644a"></path><path d="M437.3 450.4L483.1 466.5L467.3 421.5Z" fill="#7ba478" stroke="#7ba478"></path><path d="M426.7 490.5L421.3 477.7L337.9 476.5Z" fill="#293528" stroke="#293528"></path><path d="M375.9 431.4L421.3 477.7L437.3 450.4Z" fill="#4c644a" stroke="#4c644a"></path><path d="M560.1 162.5L552.1 158.6L528.1 207.8Z" fill="#435841" stroke="#435841"></path><path d="M526.4 159.5L545.4 103.3L495.1 144.3Z" fill="#7ba478" stroke="#7ba478"></path><path d="M589.8 236.9L560.1 162.5L528.1 207.8Z" fill="#557053" stroke="#557053"></path><path d="M637.8 349.2L620.4 281.1L577.4 352.2Z" fill="#4c644a" stroke="#4c644a"></path><path d="M577.4 352.2L620.4 281.1L559.1 325.9Z" fill="#85b182" stroke="#85b182"></path><path d="M614.2 130.6L556.4 139.6L560.1 162.5Z" fill="#5e7d5c" stroke="#5e7d5c"></path><path d="M626.8 440.4L595.4 394.4L617.2 468.5Z" fill="#557053" stroke="#557053"></path><path d="M554.1 397.4L595.4 394.4L577.4 352.2Z" fill="#4c644a" stroke="#4c644a"></path><path d="M337.9 476.5L421.3 477.7L375.9 431.4Z" fill="#314030" stroke="#314030"></path><path d="M421.3 477.7L426.7 490.5L437.3 450.4Z" fill="#71966f" stroke="#71966f"></path><path d="M341.9 162.5L287.2 164.5L306.6 183.6Z" fill="#557053" stroke="#557053"></path><path d="M238.5 209.8L237.8 252.8L280.8 278.9Z" fill="#557053" stroke="#557053"></path><path d="M354.6 110.5L287.2 164.5L341.9 162.5Z" fill="#71966f" stroke="#71966f"></path><path d="M246.2 376.2L317.6 327.2L241.5 371.2Z" fill="#71966f" stroke="#71966f"></path><path d="M341.6 405.4L337.9 476.5L360.9 413.2Z" fill="#557053" stroke="#557053"></path><path d="M514.1 68.2L455.3 99.5L495.1 144.3Z" fill="#7ba478" stroke="#7ba478"></path><path d="M495.1 144.3L455.3 99.5L438.7 159.5Z" fill="#85b182" stroke="#85b182"></path><path d="M556.4 139.6L526.4 159.5L552.1 158.6Z" fill="#435841" stroke="#435841"></path><path d="M238.5 209.8L280.8 278.9L306.6 183.6Z" fill="#435841" stroke="#435841"></path><path d="M241.5 371.2L317.6 327.2L296.2 296.9Z" fill="#85b182" stroke="#85b182"></path><path d="M630.2 171.5L560.1 162.5L589.8 236.9Z" fill="#688965" stroke="#688965"></path><path d="M560.1 162.5L556.4 139.6L552.1 158.6Z" fill="#71966f" stroke="#71966f"></path><path d="M451.7 509.7L515.4 478.7L483.1 466.5Z" fill="#557053" stroke="#557053"></path><path d="M483.1 466.5L515.4 478.7L467.3 421.5Z" fill="#435841" stroke="#435841"></path><path d="M359.9 98.3L354.6 110.5L438.7 159.5Z" fill="#3a4c39" stroke="#3a4c39"></path><path d="M237.8 252.8L230.2 283.8L263.2 282.1Z" fill="#557053" stroke="#557053"></path><path d="M241.5 371.2L296.2 296.9L263.2 282.1Z" fill="#314030" stroke="#314030"></path><path d="M246.2 376.2L257.2 398.4L260.8 395.4Z" fill="#688965" stroke="#688965"></path><path d="M266.2 476.5L337.9 476.5L341.6 405.4Z" fill="#4c644a" stroke="#4c644a"></path><path d="M266.2 476.5L341.6 405.4L260.8 395.4Z" fill="#3a4c39" stroke="#3a4c39"></path><path d="M246.2 376.2L204.8 406.2L257.2 398.4Z" fill="#3a4c39" stroke="#3a4c39"></path><path d="M230.2 283.8L241.5 371.2L263.2 282.1Z" fill="#557053" stroke="#557053"></path><path d="M620.4 281.1L629.8 227.8L589.8 236.9Z" fill="#435841" stroke="#435841"></path><path d="M455.3 99.5L359.9 98.3L438.7 159.5Z" fill="#435841" stroke="#435841"></path><path d="M254.2 106.3L239.2 138.6L287.2 164.5Z" fill="#5e7d5c" stroke="#5e7d5c"></path><path d="M514.1 68.2L449.3 85.3L455.3 99.5Z" fill="#435841" stroke="#435841"></path><path d="M455.3 99.5L449.3 85.3L359.9 98.3Z" fill="#557053" stroke="#557053"></path><path d="M287.2 164.5L238.5 209.8L306.6 183.6Z" fill="#3a4c39" stroke="#3a4c39"></path><path d="M237.8 252.8L219.5 279.1L230.2 283.8Z" fill="#3a4c39" stroke="#3a4c39"></path><path d="M595.4 394.4L637.8 349.2L577.4 352.2Z" fill="#557053" stroke="#557053"></path><path d="M620.4 281.1L644.8 282.1L629.8 227.8Z" fill="#688965" stroke="#688965"></path><path d="M637.8 349.2L644.8 282.1L620.4 281.1Z" fill="#557053" stroke="#557053"></path><path d="M156.1 206.8L219.5 279.1L237.8 252.8Z" fill="#435841" stroke="#435841"></path><path d="M177.1 314.1L208.8 375.1L241.5 371.2Z" fill="#293528" stroke="#293528"></path><path d="M446.3 551.8L451.7 509.7L426.7 490.5Z" fill="#4c644a" stroke="#4c644a"></path><path d="M426.7 490.5L451.7 509.7L483.1 466.5Z" fill="#3a4c39" stroke="#3a4c39"></path><path d="M614.2 130.6L545.4 103.3L556.4 139.6Z" fill="#688965" stroke="#688965"></path><path d="M556.4 139.6L545.4 103.3L526.4 159.5Z" fill="#4c644a" stroke="#4c644a"></path><path d="M293.6 504.5L327.2 495.7L337.9 476.5Z" fill="#4c644a" stroke="#4c644a"></path><path d="M337.9 476.5L335.6 527.7L426.7 490.5Z" fill="#688965" stroke="#688965"></path><path d="M451.7 509.7L532.1 502.7L515.4 478.7Z" fill="#314030" stroke="#314030"></path><path d="M515.4 478.7L563.4 487.5L554.1 397.4Z" fill="#71966f" stroke="#71966f"></path><path d="M595.4 394.4L655.2 358.1L637.8 349.2Z" fill="#557053" stroke="#557053"></path><path d="M679.5 389.4L655.2 358.1L677.2 407.4Z" fill="#557053" stroke="#557053"></path><path d="M637.8 349.2L700.2 309.9L644.8 282.1Z" fill="#688965" stroke="#688965"></path><path d="M532.1 502.7L563.4 487.5L515.4 478.7Z" fill="#5e7d5c" stroke="#5e7d5c"></path><path d="M649.8 164.5L630.2 171.5L663.8 182.6Z" fill="#314030" stroke="#314030"></path><path d="M629.8 227.8L630.2 171.5L589.8 236.9Z" fill="#85b182" stroke="#85b182"></path><path d="M630.2 171.5L629.8 227.8L663.8 182.6Z" fill="#314030" stroke="#314030"></path><path d="M241.5 371.2L208.8 375.1L246.2 376.2Z" fill="#314030" stroke="#314030"></path><path d="M257.2 398.4L266.2 476.5L260.8 395.4Z" fill="#3a4c39" stroke="#3a4c39"></path><path d="M193.1 371.2L208.8 375.1L177.1 314.1Z" fill="#688965" stroke="#688965"></path><path d="M287.2 164.5L217.5 184.6L238.5 209.8Z" fill="#314030" stroke="#314030"></path><path d="M238.5 209.8L156.1 206.8L237.8 252.8Z" fill="#314030" stroke="#314030"></path><path d="M177.1 314.1L241.5 371.2L230.2 283.8Z" fill="#688965" stroke="#688965"></path><path d="M239.2 138.6L217.5 184.6L287.2 164.5Z" fill="#7ba478" stroke="#7ba478"></path><path d="M514.7 67.2L514.1 68.2L545.4 103.3Z" fill="#688965" stroke="#688965"></path><path d="M545.4 103.3L514.1 68.2L495.1 144.3Z" fill="#688965" stroke="#688965"></path><path d="M449.3 85.3L432.7 47.3L359.9 98.3Z" fill="#435841" stroke="#435841"></path><path d="M617.2 468.5L595.4 394.4L554.1 397.4Z" fill="#7ba478" stroke="#7ba478"></path><path d="M565.8 56.3L514.7 67.2L545.4 103.3Z" fill="#5e7d5c" stroke="#5e7d5c"></path><path d="M514.1 68.2L432.7 47.3L449.3 85.3Z" fill="#688965" stroke="#688965"></path><path d="M227.5 460.5L266.2 476.5L257.2 398.4Z" fill="#5e7d5c" stroke="#5e7d5c"></path><path d="M630.2 171.5L614.2 130.6L560.1 162.5Z" fill="#293528" stroke="#293528"></path><path d="M481.1 0L432.7 47.3L514.1 68.2Z" fill="#7ba478" stroke="#7ba478"></path><path d="M254.2 106.3L287.2 164.5L354.6 110.5Z" fill="#293528" stroke="#293528"></path><path d="M254.2 106.3L354.6 110.5L322.6 39.3Z" fill="#4c644a" stroke="#4c644a"></path><path d="M266.2 476.5L293.6 504.5L337.9 476.5Z" fill="#688965" stroke="#688965"></path><path d="M327.2 495.7L335.6 527.7L337.9 476.5Z" fill="#3a4c39" stroke="#3a4c39"></path><path d="M177.1 314.1L230.2 283.8L219.5 279.1Z" fill="#7ba478" stroke="#7ba478"></path><path d="M208.8 375.1L204.8 406.2L246.2 376.2Z" fill="#435841" stroke="#435841"></path><path d="M293.6 504.5L335.6 527.7L327.2 495.7Z" fill="#688965" stroke="#688965"></path><path d="M451.7 509.7L488.1 561.8L532.1 502.7Z" fill="#314030" stroke="#314030"></path><path d="M193.1 371.2L204.8 406.2L208.8 375.1Z" fill="#557053" stroke="#557053"></path><path d="M563.4 487.5L617.2 468.5L554.1 397.4Z" fill="#7ba478" stroke="#7ba478"></path><path d="M677.2 407.4L655.2 358.1L595.4 394.4Z" fill="#557053" stroke="#557053"></path><path d="M614.2 472.7L617.2 468.5L563.4 487.5Z" fill="#688965" stroke="#688965"></path><path d="M604.8 483.7L614.2 472.7L563.4 487.5Z" fill="#293528" stroke="#293528"></path><path d="M239.2 138.6L211.5 169.5L217.5 184.6Z" fill="#5e7d5c" stroke="#5e7d5c"></path><path d="M156.5 297.9L177.1 314.1L219.5 279.1Z" fill="#5e7d5c" stroke="#5e7d5c"></path><path d="M663.8 182.6L629.8 227.8L701.2 245.8Z" fill="#5e7d5c" stroke="#5e7d5c"></path><path d="M630.2 171.5L649.8 164.5L614.2 130.6Z" fill="#688965" stroke="#688965"></path><path d="M612.4 526.8L604.8 483.7L563.4 487.5Z" fill="#3a4c39" stroke="#3a4c39"></path><path d="M156.5 297.9L219.5 279.1L156.1 206.8Z" fill="#4c644a" stroke="#4c644a"></path><path d="M266.8 500.7L290.2 508.8L293.6 504.5Z" fill="#5e7d5c" stroke="#5e7d5c"></path><path d="M293.6 504.5L290.2 508.8L335.6 527.7Z" fill="#557053" stroke="#557053"></path><path d="M266.8 500.7L293.6 504.5L266.2 476.5Z" fill="#293528" stroke="#293528"></path><path d="M335.6 527.7L446.3 551.8L426.7 490.5Z" fill="#314030" stroke="#314030"></path><path d="M532.1 502.7L612.4 526.8L563.4 487.5Z" fill="#7ba478" stroke="#7ba478"></path><path d="M701.2 245.8L629.8 227.8L644.8 282.1Z" fill="#435841" stroke="#435841"></path><path d="M336.6 46.2L354.6 110.5L359.9 98.3Z" fill="#557053" stroke="#557053"></path><path d="M239.2 138.6L224.8 134.6L211.5 169.5Z" fill="#5e7d5c" stroke="#5e7d5c"></path><path d="M204.8 406.2L227.5 460.5L257.2 398.4Z" fill="#7ba478" stroke="#7ba478"></path><path d="M254.2 106.3L224.8 134.6L239.2 138.6Z" fill="#71966f" stroke="#71966f"></path><path d="M250.8 502.8L266.8 500.7L266.2 476.5Z" fill="#71966f" stroke="#71966f"></path><path d="M290.2 508.8L324.9 551.7L335.6 527.7Z" fill="#293528" stroke="#293528"></path><path d="M204.8 406.2L198.8 420.5L227.5 460.5Z" fill="#688965" stroke="#688965"></path><path d="M153.5 420.4L198.8 420.5L204.8 406.2Z" fill="#3a4c39" stroke="#3a4c39"></path><path d="M185.1 462.5L198.8 420.5L153.5 420.4Z" fill="#71966f" stroke="#71966f"></path><path d="M677.2 407.4L595.4 394.4L672.2 419.2Z" fill="#5e7d5c" stroke="#5e7d5c"></path><path d="M655.2 358.1L700.2 309.9L637.8 349.2Z" fill="#688965" stroke="#688965"></path><path d="M595.4 394.4L626.8 440.4L672.2 419.2Z" fill="#557053" stroke="#557053"></path><path d="M369.9 26.2L336.6 46.2L359.9 98.3Z" fill="#7ba478" stroke="#7ba478"></path><path d="M705.5 329.2L700.2 309.9L655.2 358.1Z" fill="#557053" stroke="#557053"></path><path d="M672.2 419.2L626.8 440.4L661.5 459.7Z" fill="#435841" stroke="#435841"></path><path d="M706.5 364.1L705.5 329.2L655.2 358.1Z" fill="#293528" stroke="#293528"></path><path d="M626.8 440.4L617.2 468.5L661.5 459.7Z" fill="#3a4c39" stroke="#3a4c39"></path><path d="M661.5 459.7L617.2 468.5L646.8 491.5Z" fill="#314030" stroke="#314030"></path><path d="M476.7 595.8L488.1 561.8L446.3 551.8Z" fill="#557053" stroke="#557053"></path><path d="M446.3 551.8L488.1 561.8L451.7 509.7Z" fill="#4c644a" stroke="#4c644a"></path><path d="M700.2 309.9L701.2 245.8L644.8 282.1Z" fill="#688965" stroke="#688965"></path><path d="M614.2 130.6L565.8 56.3L545.4 103.3Z" fill="#3a4c39" stroke="#3a4c39"></path><path d="M437.3 0L413.3 18.2L432.7 47.3Z" fill="#85b182" stroke="#85b182"></path><path d="M583.4 42.2L565.8 56.3L614.2 130.6Z" fill="#557053" stroke="#557053"></path><path d="M227.5 460.5L250.8 502.8L266.2 476.5Z" fill="#4c644a" stroke="#4c644a"></path><path d="M266.8 500.7L250.8 502.8L290.2 508.8Z" fill="#85b182" stroke="#85b182"></path><path d="M185.1 462.5L250.8 502.8L227.5 460.5Z" fill="#5e7d5c" stroke="#5e7d5c"></path><path d="M189.1 139.6L202.8 144.5L205.5 104.3Z" fill="#688965" stroke="#688965"></path><path d="M224.8 134.6L202.8 144.5L211.5 169.5Z" fill="#4c644a" stroke="#4c644a"></path><path d="M156.1 206.8L238.5 209.8L217.5 184.6Z" fill="#688965" stroke="#688965"></path><path d="M706.5 364.1L655.2 358.1L679.5 389.4Z" fill="#314030" stroke="#314030"></path><path d="M700.2 309.9L726.9 302.9L701.2 245.8Z" fill="#4c644a" stroke="#4c644a"></path><path d="M156.1 206.8L217.5 184.6L211.5 169.5Z" fill="#314030" stroke="#314030"></path><path d="M177.1 314.1L147.1 399.4L193.1 371.2Z" fill="#7ba478" stroke="#7ba478"></path><path d="M305.6 586.8L324.9 551.7L290.2 508.8Z" fill="#71966f" stroke="#71966f"></path><path d="M335.6 527.7L382.9 597.8L446.3 551.8Z" fill="#85b182" stroke="#85b182"></path><path d="M432.7 47.3L369.9 26.2L359.9 98.3Z" fill="#435841" stroke="#435841"></path><path d="M413.3 18.2L369.9 26.2L432.7 47.3Z" fill="#4c644a" stroke="#4c644a"></path><path d="M437.3 0L432.7 47.3L481.1 0Z" fill="#4c644a" stroke="#4c644a"></path><path d="M336.6 46.2L322.6 39.3L354.6 110.5Z" fill="#4c644a" stroke="#4c644a"></path><path d="M205.5 104.3L202.8 144.5L224.8 134.6Z" fill="#3a4c39" stroke="#3a4c39"></path><path d="M328.2 0L322.6 39.3L336.6 46.2Z" fill="#314030" stroke="#314030"></path><path d="M646.8 491.5L614.2 472.7L604.8 483.7Z" fill="#557053" stroke="#557053"></path><path d="M646.8 491.5L617.2 468.5L614.2 472.7Z" fill="#7ba478" stroke="#7ba478"></path><path d="M708.9 363.1L706.5 364.1L725.9 365.4Z" fill="#7ba478" stroke="#7ba478"></path><path d="M691.5 417.5L706.5 364.1L679.5 389.4Z" fill="#293528" stroke="#293528"></path><path d="M679.5 389.4L677.2 407.4L691.5 417.5Z" fill="#688965" stroke="#688965"></path><path d="M691.5 417.5L677.2 407.4L672.2 419.2Z" fill="#688965" stroke="#688965"></path><path d="M706.5 364.1L708.9 363.1L705.5 329.2Z" fill="#688965" stroke="#688965"></path><path d="M705.5 329.2L726.9 302.9L700.2 309.9Z" fill="#435841" stroke="#435841"></path><path d="M661.5 459.7L691.5 417.5L672.2 419.2Z" fill="#4c644a" stroke="#4c644a"></path><path d="M205.5 104.3L224.8 134.6L254.2 106.3Z" fill="#5e7d5c" stroke="#5e7d5c"></path><path d="M202.8 144.5L189.1 139.6L211.5 169.5Z" fill="#314030" stroke="#314030"></path><path d="M189.1 139.6L156.1 206.8L211.5 169.5Z" fill="#688965" stroke="#688965"></path><path d="M612.4 526.8L646.8 491.5L604.8 483.7Z" fill="#314030" stroke="#314030"></path><path d="M710.9 466.5L736.9 404.2L691.5 417.5Z" fill="#3a4c39" stroke="#3a4c39"></path><path d="M565.8 594.8L612.4 526.8L532.1 502.7Z" fill="#85b182" stroke="#85b182"></path><path d="M725.9 365.4L726.9 302.9L705.5 329.2Z" fill="#85b182" stroke="#85b182"></path><path d="M650.8 47.2L583.4 42.2L614.2 130.6Z" fill="#71966f" stroke="#71966f"></path><path d="M515.4 0L481.1 0L514.7 67.2Z" fill="#71966f" stroke="#71966f"></path><path d="M667.5 85.2L614.2 130.6L649.8 164.5Z" fill="#85b182" stroke="#85b182"></path><path d="M741.5 140.3L649.8 164.5L663.8 182.6Z" fill="#3a4c39" stroke="#3a4c39"></path><path d="M481.1 0L514.1 68.2L514.7 67.2Z" fill="#3a4c39" stroke="#3a4c39"></path><path d="M413.3 18.2L382.9 0L369.9 26.2Z" fill="#293528" stroke="#293528"></path><path d="M369.9 26.2L328.2 0L336.6 46.2Z" fill="#3a4c39" stroke="#3a4c39"></path><path d="M233.8 56.3L205.5 104.3L254.2 106.3Z" fill="#85b182" stroke="#85b182"></path><path d="M189.1 139.6L132.7 145.3L156.1 206.8Z" fill="#4c644a" stroke="#4c644a"></path><path d="M147.1 399.4L204.8 406.2L193.1 371.2Z" fill="#557053" stroke="#557053"></path><path d="M198.8 420.5L185.1 462.5L227.5 460.5Z" fill="#293528" stroke="#293528"></path><path d="M379.9 600L382.9 597.8L340.6 600Z" fill="#314030" stroke="#314030"></path><path d="M754.5 260.9L721.5 216.8L701.2 245.8Z" fill="#5e7d5c" stroke="#5e7d5c"></path><path d="M701.2 245.8L721.5 216.8L663.8 182.6Z" fill="#293528" stroke="#293528"></path><path d="M515.4 0L514.7 67.2L515.7 0Z" fill="#7ba478" stroke="#7ba478"></path><path d="M437.3 0L382.9 0L413.3 18.2Z" fill="#3a4c39" stroke="#3a4c39"></path><path d="M267.8 22.2L233.8 56.3L254.2 106.3Z" fill="#5e7d5c" stroke="#5e7d5c"></path><path d="M736.9 404.2L725.9 365.4L706.5 364.1Z" fill="#71966f" stroke="#71966f"></path><path d="M708.9 363.1L725.9 365.4L705.5 329.2Z" fill="#557053" stroke="#557053"></path><path d="M736.9 404.2L706.5 364.1L691.5 417.5Z" fill="#314030" stroke="#314030"></path><path d="M394.3 600L476.7 595.8L446.3 551.8Z" fill="#3a4c39" stroke="#3a4c39"></path><path d="M488.1 561.8L565.8 594.8L532.1 502.7Z" fill="#314030" stroke="#314030"></path><path d="M91.7 326.9L147.1 399.4L177.1 314.1Z" fill="#293528" stroke="#293528"></path><path d="M91.7 326.9L177.1 314.1L156.5 297.9Z" fill="#5e7d5c" stroke="#5e7d5c"></path><path d="M147.1 399.4L153.5 420.4L204.8 406.2Z" fill="#435841" stroke="#435841"></path><path d="M382.9 597.8L324.9 551.7L340.6 600Z" fill="#688965" stroke="#688965"></path><path d="M324.9 551.7L382.9 597.8L335.6 527.7Z" fill="#293528" stroke="#293528"></path><path d="M382.9 597.8L394.3 600L446.3 551.8Z" fill="#314030" stroke="#314030"></path><path d="M394.3 600L476.7 600L476.7 595.8Z" fill="#557053" stroke="#557053"></path><path d="M476.7 595.8L509.1 600L488.1 561.8Z" fill="#293528" stroke="#293528"></path><path d="M515.7 0L514.7 67.2L565.8 56.3Z" fill="#7ba478" stroke="#7ba478"></path><path d="M583.4 42.2L515.7 0L565.8 56.3Z" fill="#71966f" stroke="#71966f"></path><path d="M382.9 597.8L379.9 600L394.3 600Z" fill="#4c644a" stroke="#4c644a"></path><path d="M305.6 586.8L290.2 508.8L265.8 600Z" fill="#71966f" stroke="#71966f"></path><path d="M771.3 236.8L724.9 198.6L721.5 216.8Z" fill="#7ba478" stroke="#7ba478"></path><path d="M721.5 216.8L724.9 198.6L663.8 182.6Z" fill="#85b182" stroke="#85b182"></path><path d="M267.8 22.2L254.2 106.3L322.6 39.3Z" fill="#557053" stroke="#557053"></path><path d="M771.3 236.8L725.5 191.6L724.9 198.6Z" fill="#293528" stroke="#293528"></path><path d="M724.9 198.6L725.5 191.6L663.8 182.6Z" fill="#7ba478" stroke="#7ba478"></path><path d="M476.7 600L509.1 600L476.7 595.8Z" fill="#4c644a" stroke="#4c644a"></path><path d="M382.9 0L328.2 0L369.9 26.2Z" fill="#435841" stroke="#435841"></path><path d="M741.5 140.3L667.5 85.2L649.8 164.5Z" fill="#4c644a" stroke="#4c644a"></path><path d="M583.4 42.2L625.2 0L515.7 0Z" fill="#3a4c39" stroke="#3a4c39"></path><path d="M304.2 600L305.6 586.8L265.8 600Z" fill="#435841" stroke="#435841"></path><path d="M305.6 586.8L340.6 600L324.9 551.7Z" fill="#5e7d5c" stroke="#5e7d5c"></path><path d="M309.6 0L267.8 22.2L322.6 39.3Z" fill="#7ba478" stroke="#7ba478"></path><path d="M328.2 0L309.6 0L322.6 39.3Z" fill="#71966f" stroke="#71966f"></path><path d="M710.9 466.5L691.5 417.5L661.5 459.7Z" fill="#314030" stroke="#314030"></path><path d="M802.6 305.9L754.5 260.9L726.9 302.9Z" fill="#3a4c39" stroke="#3a4c39"></path><path d="M726.9 302.9L754.5 260.9L701.2 245.8Z" fill="#314030" stroke="#314030"></path><path d="M710.9 466.5L661.5 459.7L646.8 491.5Z" fill="#557053" stroke="#557053"></path><path d="M794.3 326.1L726.9 302.9L725.9 365.4Z" fill="#7ba478" stroke="#7ba478"></path><path d="M646.2 569.8L646.8 491.5L612.4 526.8Z" fill="#4c644a" stroke="#4c644a"></path><path d="M745.5 547.8L710.9 466.5L646.8 491.5Z" fill="#435841" stroke="#435841"></path><path d="M509.1 600L565.8 594.8L488.1 561.8Z" fill="#688965" stroke="#688965"></path><path d="M265.8 600L290.2 508.8L250.8 502.8Z" fill="#3a4c39" stroke="#3a4c39"></path><path d="M305.6 586.8L304.2 600L340.6 600Z" fill="#4c644a" stroke="#4c644a"></path><path d="M655.2 30.2L650.8 47.2L706.2 78.3Z" fill="#71966f" stroke="#71966f"></path><path d="M667.5 85.2L650.8 47.2L614.2 130.6Z" fill="#435841" stroke="#435841"></path><path d="M149.1 109.5L132.7 145.3L189.1 139.6Z" fill="#3a4c39" stroke="#3a4c39"></path><path d="M156.1 206.8L96.1 261.9L156.5 297.9Z" fill="#85b182" stroke="#85b182"></path><path d="M149.1 109.5L189.1 139.6L205.5 104.3Z" fill="#557053" stroke="#557053"></path><path d="M149.1 109.5L205.5 104.3L162.1 69.3Z" fill="#5e7d5c" stroke="#5e7d5c"></path><path d="M309.6 0L283.2 -4.8L267.8 22.2Z" fill="#3a4c39" stroke="#3a4c39"></path><path d="M190.5 0L162.1 69.3L233.8 56.3Z" fill="#293528" stroke="#293528"></path><path d="M328.2 0L283.2 -4.8L309.6 0Z" fill="#314030" stroke="#314030"></path><path d="M382.9 0L283.2 -4.8L328.2 0Z" fill="#7ba478" stroke="#7ba478"></path><path d="M437.3 0L283.2 -4.8L382.9 0Z" fill="#7ba478" stroke="#7ba478"></path><path d="M481.1 0L283.2 -4.8L437.3 0Z" fill="#4c644a" stroke="#4c644a"></path><path d="M515.4 0L283.2 -4.8L481.1 0Z" fill="#435841" stroke="#435841"></path><path d="M515.7 0L283.2 -4.8L515.4 0Z" fill="#71966f" stroke="#71966f"></path><path d="M76.4 223.8L96.1 261.9L156.1 206.8Z" fill="#688965" stroke="#688965"></path><path d="M147.1 399.4L96.7 403.4L153.5 420.4Z" fill="#293528" stroke="#293528"></path><path d="M162.1 69.3L205.5 104.3L233.8 56.3Z" fill="#71966f" stroke="#71966f"></path><path d="M81.4 308.9L91.7 326.9L156.5 297.9Z" fill="#7ba478" stroke="#7ba478"></path><path d="M51.4 101.3L110.7 172.6L132.7 145.3Z" fill="#7ba478" stroke="#7ba478"></path><path d="M132.7 145.3L110.7 172.6L156.1 206.8Z" fill="#314030" stroke="#314030"></path><path d="M754.5 260.9L771.3 236.8L721.5 216.8Z" fill="#85b182" stroke="#85b182"></path><path d="M725.5 191.6L741.5 140.3L663.8 182.6Z" fill="#688965" stroke="#688965"></path><path d="M802.6 305.9L771.3 236.8L754.5 260.9Z" fill="#5e7d5c" stroke="#5e7d5c"></path><path d="M509.1 600L596.4 600L565.8 594.8Z" fill="#5e7d5c" stroke="#5e7d5c"></path><path d="M565.8 594.8L596.4 600L612.4 526.8Z" fill="#4c644a" stroke="#4c644a"></path><path d="M227.5 600L265.8 600L250.8 502.8Z" fill="#435841" stroke="#435841"></path><path d="M227.5 600L250.8 502.8L151.5 543.7Z" fill="#435841" stroke="#435841"></path><path d="M151.5 543.7L89.7 512.7L108.1 536.7Z" fill="#7ba478" stroke="#7ba478"></path><path d="M749.5 145.5L741.5 140.3L725.5 191.6Z" fill="#314030" stroke="#314030"></path><path d="M81.4 308.9L86.7 328.2L91.7 326.9Z" fill="#435841" stroke="#435841"></path><path d="M91.7 326.9L96.7 403.4L147.1 399.4Z" fill="#688965" stroke="#688965"></path><path d="M706.2 78.3L650.8 47.2L667.5 85.2Z" fill="#557053" stroke="#557053"></path><path d="M650.8 47.2L625.2 0L583.4 42.2Z" fill="#4c644a" stroke="#4c644a"></path><path d="M614.8 600L646.2 569.8L612.4 526.8Z" fill="#71966f" stroke="#71966f"></path><path d="M741.5 140.3L706.2 78.3L667.5 85.2Z" fill="#557053" stroke="#557053"></path><path d="M96.1 261.9L81.4 308.9L156.5 297.9Z" fill="#71966f" stroke="#71966f"></path><path d="M57.7 269.1L81.4 308.9L96.1 261.9Z" fill="#3a4c39" stroke="#3a4c39"></path><path d="M783.3 161.5L749.5 145.5L725.5 191.6Z" fill="#85b182" stroke="#85b182"></path><path d="M741.5 140.3L753.9 125.5L706.2 78.3Z" fill="#5e7d5c" stroke="#5e7d5c"></path><path d="M88.4 403.2L96.7 403.4L86.7 328.2Z" fill="#85b182" stroke="#85b182"></path><path d="M86.7 328.2L96.7 403.4L91.7 326.9Z" fill="#557053" stroke="#557053"></path><path d="M149.1 109.5L109.7 84.5L132.7 145.3Z" fill="#314030" stroke="#314030"></path><path d="M236.8 0L233.8 56.3L267.8 22.2Z" fill="#4c644a" stroke="#4c644a"></path><path d="M655.2 30.2L625.2 0L650.8 47.2Z" fill="#85b182" stroke="#85b182"></path><path d="M515.7 0L625.2 0L283.2 -4.8Z" fill="#688965" stroke="#688965"></path><path d="M648.8 0L625.2 0L655.2 30.2Z" fill="#435841" stroke="#435841"></path><path d="M596.4 600L614.8 600L612.4 526.8Z" fill="#7ba478" stroke="#7ba478"></path><path d="M283.2 -4.8L236.8 0L267.8 22.2Z" fill="#71966f" stroke="#71966f"></path><path d="M60.4 338.1L88.4 403.2L86.7 328.2Z" fill="#4c644a" stroke="#4c644a"></path><path d="M79.4 449.4L185.1 462.5L153.5 420.4Z" fill="#3a4c39" stroke="#3a4c39"></path><path d="M236.8 0L218.5 5.2L233.8 56.3Z" fill="#7ba478" stroke="#7ba478"></path><path d="M64.4 234.6L76.4 223.8L0 215.8Z" fill="#435841" stroke="#435841"></path><path d="M110.7 172.6L76.4 223.8L156.1 206.8Z" fill="#293528" stroke="#293528"></path><path d="M804.6 375.4L725.9 365.4L736.9 404.2Z" fill="#5e7d5c" stroke="#5e7d5c"></path><path d="M804.6 375.4L794.3 326.1L725.9 365.4Z" fill="#7ba478" stroke="#7ba478"></path><path d="M785.3 155.6L753.9 125.5L749.5 145.5Z" fill="#557053" stroke="#557053"></path><path d="M783.3 161.5L725.5 191.6L771.3 236.8Z" fill="#314030" stroke="#314030"></path><path d="M749.5 145.5L753.9 125.5L741.5 140.3Z" fill="#71966f" stroke="#71966f"></path><path d="M151.5 543.7L250.8 502.8L185.1 462.5Z" fill="#5e7d5c" stroke="#5e7d5c"></path><path d="M714.9 0L655.2 30.2L706.2 78.3Z" fill="#557053" stroke="#557053"></path><path d="M661.5 0L648.8 0L655.2 30.2Z" fill="#688965" stroke="#688965"></path><path d="M625.2 0L648.8 0L283.2 -4.8Z" fill="#293528" stroke="#293528"></path><path d="M753.9 125.5L724.9 69.2L706.2 78.3Z" fill="#71966f" stroke="#71966f"></path><path d="M794.3 326.1L802.6 305.9L726.9 302.9Z" fill="#3a4c39" stroke="#3a4c39"></path><path d="M58.7 240.8L0 215.8L0 266.9Z" fill="#293528" stroke="#293528"></path><path d="M76.4 223.8L64.4 234.6L96.1 261.9Z" fill="#7ba478" stroke="#7ba478"></path><path d="M81.4 308.9L60.4 338.1L86.7 328.2Z" fill="#557053" stroke="#557053"></path><path d="M57.7 269.1L60.4 338.1L81.4 308.9Z" fill="#293528" stroke="#293528"></path><path d="M84.4 438.5L153.5 420.4L96.7 403.4Z" fill="#85b182" stroke="#85b182"></path><path d="M714.9 0L661.5 0L655.2 30.2Z" fill="#314030" stroke="#314030"></path><path d="M648.8 0L661.5 0L283.2 -4.8Z" fill="#293528" stroke="#293528"></path><path d="M58.7 240.8L57.7 269.1L96.1 261.9Z" fill="#688965" stroke="#688965"></path><path d="M79.4 449.4L84.4 438.5L43.7 458.5Z" fill="#4c644a" stroke="#4c644a"></path><path d="M88.4 403.2L84.4 438.5L96.7 403.4Z" fill="#71966f" stroke="#71966f"></path><path d="M810.9 196.8L783.3 161.5L771.3 236.8Z" fill="#3a4c39" stroke="#3a4c39"></path><path d="M753.9 125.5L784.9 110.3L724.9 69.2Z" fill="#293528" stroke="#293528"></path><path d="M35.4 118.5L76.4 223.8L110.7 172.6Z" fill="#71966f" stroke="#71966f"></path><path d="M64.4 234.6L58.7 240.8L96.1 261.9Z" fill="#7ba478" stroke="#7ba478"></path><path d="M813.6 170.6L785.3 155.6L783.3 161.5Z" fill="#7ba478" stroke="#7ba478"></path><path d="M783.3 161.5L785.3 155.6L749.5 145.5Z" fill="#4c644a" stroke="#4c644a"></path><path d="M801.3 433.5L736.9 404.2L710.9 466.5Z" fill="#7ba478" stroke="#7ba478"></path><path d="M801.3 433.5L804.6 375.4L736.9 404.2Z" fill="#7ba478" stroke="#7ba478"></path><path d="M794.3 326.1L857.6 341.1L802.6 305.9Z" fill="#5e7d5c" stroke="#5e7d5c"></path><path d="M283.2 -4.8L190.5 0L236.8 0Z" fill="#3a4c39" stroke="#3a4c39"></path><path d="M236.8 0L190.5 0L218.5 5.2Z" fill="#5e7d5c" stroke="#5e7d5c"></path><path d="M218.5 5.2L190.5 0L233.8 56.3Z" fill="#557053" stroke="#557053"></path><path d="M162.1 69.3L109.7 84.5L149.1 109.5Z" fill="#5e7d5c" stroke="#5e7d5c"></path><path d="M43.7 458.5L84.4 438.5L88.4 403.2Z" fill="#435841" stroke="#435841"></path><path d="M84.4 438.5L79.4 449.4L153.5 420.4Z" fill="#314030" stroke="#314030"></path><path d="M83.7 52.2L109.7 84.5L162.1 69.3Z" fill="#3a4c39" stroke="#3a4c39"></path><path d="M283.2 -4.8L176.1 0L190.5 0Z" fill="#5e7d5c" stroke="#5e7d5c"></path><path d="M190.5 0L176.1 0L162.1 69.3Z" fill="#557053" stroke="#557053"></path><path d="M847.3 252.9L810.9 196.8L771.3 236.8Z" fill="#688965" stroke="#688965"></path><path d="M820.6 191.8L810.9 196.8L847.3 252.9Z" fill="#435841" stroke="#435841"></path><path d="M614.8 600L680.2 600L646.2 569.8Z" fill="#314030" stroke="#314030"></path><path d="M646.2 569.8L745.5 547.8L646.8 491.5Z" fill="#4c644a" stroke="#4c644a"></path><path d="M151.5 543.7L148.5 567.8L227.5 600Z" fill="#3a4c39" stroke="#3a4c39"></path><path d="M108.1 536.7L148.5 567.8L151.5 543.7Z" fill="#688965" stroke="#688965"></path><path d="M745.5 547.8L771.3 494.7L710.9 466.5Z" fill="#5e7d5c" stroke="#5e7d5c"></path><path d="M771.3 494.7L801.3 433.5L710.9 466.5Z" fill="#688965" stroke="#688965"></path><path d="M797.3 109.3L784.9 110.3L785.3 155.6Z" fill="#5e7d5c" stroke="#5e7d5c"></path><path d="M785.3 155.6L784.9 110.3L753.9 125.5Z" fill="#85b182" stroke="#85b182"></path><path d="M724.9 69.2L714.9 0L706.2 78.3Z" fill="#557053" stroke="#557053"></path><path d="M820.6 191.8L813.6 170.6L810.9 196.8Z" fill="#314030" stroke="#314030"></path><path d="M810.9 196.8L813.6 170.6L783.3 161.5Z" fill="#85b182" stroke="#85b182"></path><path d="M680.2 600L745.5 547.8L646.2 569.8Z" fill="#7ba478" stroke="#7ba478"></path><path d="M849.3 420.2L839.6 413.5L801.3 433.5Z" fill="#3a4c39" stroke="#3a4c39"></path><path d="M847.3 252.9L771.3 236.8L802.6 305.9Z" fill="#293528" stroke="#293528"></path><path d="M847.3 252.9L802.6 305.9L857.6 341.1Z" fill="#314030" stroke="#314030"></path><path d="M89.7 512.7L151.5 543.7L185.1 462.5Z" fill="#557053" stroke="#557053"></path><path d="M78.7 600L165.1 600L148.5 567.8Z" fill="#71966f" stroke="#71966f"></path><path d="M148.5 567.8L165.1 600L227.5 600Z" fill="#435841" stroke="#435841"></path><path d="M79.4 449.4L89.7 512.7L185.1 462.5Z" fill="#435841" stroke="#435841"></path><path d="M51.7 502.8L89.7 512.7L79.4 449.4Z" fill="#5e7d5c" stroke="#5e7d5c"></path><path d="M753.3 15.2L714.9 0L724.9 69.2Z" fill="#85b182" stroke="#85b182"></path><path d="M661.5 0L714.9 0L283.2 -4.8Z" fill="#314030" stroke="#314030"></path><path d="M813.6 170.6L797.3 109.3L785.3 155.6Z" fill="#4c644a" stroke="#4c644a"></path><path d="M784.9 110.3L753.3 15.2L724.9 69.2Z" fill="#314030" stroke="#314030"></path><path d="M822.6 101.5L797.3 109.3L813.6 170.6Z" fill="#314030" stroke="#314030"></path><path d="M680.2 600L710.5 600L745.5 547.8Z" fill="#5e7d5c" stroke="#5e7d5c"></path><path d="M710.5 600L716.9 597.8L745.5 547.8Z" fill="#688965" stroke="#688965"></path><path d="M72.4 533.7L100.1 548.8L108.1 536.7Z" fill="#688965" stroke="#688965"></path><path d="M108.1 536.7L100.1 548.8L148.5 567.8Z" fill="#5e7d5c" stroke="#5e7d5c"></path><path d="M857.6 341.1L794.3 326.1L804.6 375.4Z" fill="#85b182" stroke="#85b182"></path><path d="M872.6 92.3L822.6 101.5L900 128.3Z" fill="#71966f" stroke="#71966f"></path><path d="M729.9 600L766.9 546.7L745.5 547.8Z" fill="#314030" stroke="#314030"></path><path d="M745.5 547.8L766.9 546.7L771.3 494.7Z" fill="#71966f" stroke="#71966f"></path><path d="M0 349.1L43.7 458.5L88.4 403.2Z" fill="#71966f" stroke="#71966f"></path><path d="M89.7 512.7L72.4 533.7L108.1 536.7Z" fill="#5e7d5c" stroke="#5e7d5c"></path><path d="M0 349.1L88.4 403.2L60.4 338.1Z" fill="#5e7d5c" stroke="#5e7d5c"></path><path d="M0 333.2L60.4 338.1L57.7 269.1Z" fill="#314030" stroke="#314030"></path><path d="M849.3 420.2L801.3 433.5L875.6 469.7Z" fill="#435841" stroke="#435841"></path><path d="M801.3 433.5L839.6 413.5L804.6 375.4Z" fill="#4c644a" stroke="#4c644a"></path><path d="M102.1 -2.8L83.7 52.2L162.1 69.3Z" fill="#5e7d5c" stroke="#5e7d5c"></path><path d="M109.7 84.5L51.4 101.3L132.7 145.3Z" fill="#7ba478" stroke="#7ba478"></path><path d="M716.9 597.8L729.9 600L745.5 547.8Z" fill="#5e7d5c" stroke="#5e7d5c"></path><path d="M710.5 600L729.9 600L716.9 597.8Z" fill="#314030" stroke="#314030"></path><path d="M797.3 109.3L753.3 15.2L784.9 110.3Z" fill="#688965" stroke="#688965"></path><path d="M83.7 52.2L51.4 101.3L109.7 84.5Z" fill="#85b182" stroke="#85b182"></path><path d="M58.7 240.8L0 266.9L57.7 269.1Z" fill="#3a4c39" stroke="#3a4c39"></path><path d="M856.3 365.4L857.6 341.1L804.6 375.4Z" fill="#435841" stroke="#435841"></path><path d="M854.6 400.2L856.3 365.4L804.6 375.4Z" fill="#688965" stroke="#688965"></path><path d="M51.7 502.8L72.4 533.7L89.7 512.7Z" fill="#5e7d5c" stroke="#5e7d5c"></path><path d="M100.1 548.8L78.7 600L148.5 567.8Z" fill="#4c644a" stroke="#4c644a"></path><path d="M43.7 458.5L51.7 502.8L79.4 449.4Z" fill="#85b182" stroke="#85b182"></path><path d="M0 215.8L58.7 240.8L64.4 234.6Z" fill="#435841" stroke="#435841"></path><path d="M43.7 458.5L26.4 513.8L51.7 502.8Z" fill="#688965" stroke="#688965"></path><path d="M0 266.9L0 333.2L57.7 269.1Z" fill="#557053" stroke="#557053"></path><path d="M0 142.3L35.4 118.5L0 130.5Z" fill="#4c644a" stroke="#4c644a"></path><path d="M51.4 101.3L35.4 118.5L110.7 172.6Z" fill="#71966f" stroke="#71966f"></path><path d="M849.3 420.2L854.6 400.2L839.6 413.5Z" fill="#5e7d5c" stroke="#5e7d5c"></path><path d="M839.6 413.5L854.6 400.2L804.6 375.4Z" fill="#3a4c39" stroke="#3a4c39"></path><path d="M900 358.1L900 289.9L857.6 341.1Z" fill="#71966f" stroke="#71966f"></path><path d="M0 333.2L0 349.1L60.4 338.1Z" fill="#435841" stroke="#435841"></path><path d="M875.6 469.7L801.3 433.5L771.3 494.7Z" fill="#7ba478" stroke="#7ba478"></path><path d="M900 128.3L813.6 170.6L820.6 191.8Z" fill="#557053" stroke="#557053"></path><path d="M797.3 109.3L802.3 0L753.3 15.2Z" fill="#4c644a" stroke="#4c644a"></path><path d="M0 147.6L0 215.8L76.4 223.8Z" fill="#71966f" stroke="#71966f"></path><path d="M283.2 -4.8L102.1 -2.8L176.1 0Z" fill="#688965" stroke="#688965"></path><path d="M176.1 0L102.1 -2.8L162.1 69.3Z" fill="#7ba478" stroke="#7ba478"></path><path d="M0 130.5L35.4 118.5L0 95.2Z" fill="#314030" stroke="#314030"></path><path d="M0 142.3L0 147.6L35.4 118.5Z" fill="#557053" stroke="#557053"></path><path d="M35.4 118.5L0 147.6L76.4 223.8Z" fill="#3a4c39" stroke="#3a4c39"></path><path d="M35.4 118.5L51.4 101.3L0 95.2Z" fill="#557053" stroke="#557053"></path><path d="M0 473.7L26.4 513.8L43.7 458.5Z" fill="#314030" stroke="#314030"></path><path d="M51.7 502.8L26.4 513.8L72.4 533.7Z" fill="#5e7d5c" stroke="#5e7d5c"></path><path d="M72.4 533.7L78.7 600L100.1 548.8Z" fill="#557053" stroke="#557053"></path><path d="M0 349.1L0 458.4L43.7 458.5Z" fill="#314030" stroke="#314030"></path><path d="M0 95.2L51.4 101.3L-4.6 17.2Z" fill="#293528" stroke="#293528"></path><path d="M0 458.4L0 462.5L43.7 458.5Z" fill="#3a4c39" stroke="#3a4c39"></path><path d="M31.4 600L78.7 600L72.4 533.7Z" fill="#314030" stroke="#314030"></path><path d="M0 462.5L0 473.7L43.7 458.5Z" fill="#5e7d5c" stroke="#5e7d5c"></path><path d="M26.4 513.8L31.4 600L72.4 533.7Z" fill="#4c644a" stroke="#4c644a"></path><path d="M857.6 341.1L900 289.9L847.3 252.9Z" fill="#5e7d5c" stroke="#5e7d5c"></path><path d="M847.3 252.9L900 214.6L820.6 191.8Z" fill="#3a4c39" stroke="#3a4c39"></path><path d="M900 358.1L857.6 341.1L856.3 365.4Z" fill="#435841" stroke="#435841"></path><path d="M900 358.1L856.3 365.4L900 365.4Z" fill="#3a4c39" stroke="#3a4c39"></path><path d="M900 365.4L856.3 365.4L900 396.2Z" fill="#435841" stroke="#435841"></path><path d="M856.3 365.4L854.6 400.2L900 396.2Z" fill="#5e7d5c" stroke="#5e7d5c"></path><path d="M854.6 400.2L849.3 420.2L900 396.2Z" fill="#688965" stroke="#688965"></path><path d="M875.6 469.7L771.3 494.7L900 522.8Z" fill="#293528" stroke="#293528"></path><path d="M822.6 101.5L802.3 0L797.3 109.3Z" fill="#3a4c39" stroke="#3a4c39"></path><path d="M753.3 15.2L802.3 0L714.9 0Z" fill="#688965" stroke="#688965"></path><path d="M714.9 0L802.3 0L283.2 -4.8Z" fill="#3a4c39" stroke="#3a4c39"></path><path d="M854.6 56.2L802.3 0L822.6 101.5Z" fill="#5e7d5c" stroke="#5e7d5c"></path><path d="M900 289.9L900 215.8L847.3 252.9Z" fill="#435841" stroke="#435841"></path><path d="M900 215.8L900 214.6L847.3 252.9Z" fill="#688965" stroke="#688965"></path><path d="M900 522.8L771.3 494.7L766.9 546.7Z" fill="#71966f" stroke="#71966f"></path><path d="M-4.6 17.2L51.4 101.3L83.7 52.2Z" fill="#435841" stroke="#435841"></path><path d="M102.1 -2.8L58.7 0L83.7 52.2Z" fill="#557053" stroke="#557053"></path><path d="M900 464.5L900 396.2L849.3 420.2Z" fill="#5e7d5c" stroke="#5e7d5c"></path><path d="M820.3 606.8L801.6 600.8L729.9 600Z" fill="#85b182" stroke="#85b182"></path><path d="M729.9 600L801.6 600.8L766.9 546.7Z" fill="#5e7d5c" stroke="#5e7d5c"></path><path d="M820.3 606.8L729.9 600L710.5 600Z" fill="#293528" stroke="#293528"></path><path d="M820.3 606.8L710.5 600L680.2 600Z" fill="#557053" stroke="#557053"></path><path d="M820.3 606.8L680.2 600L614.8 600Z" fill="#293528" stroke="#293528"></path><path d="M820.3 606.8L614.8 600L596.4 600Z" fill="#4c644a" stroke="#4c644a"></path><path d="M820.3 606.8L596.4 600L509.1 600Z" fill="#314030" stroke="#314030"></path><path d="M820.3 606.8L509.1 600L476.7 600Z" fill="#3a4c39" stroke="#3a4c39"></path><path d="M820.3 606.8L476.7 600L394.3 600Z" fill="#293528" stroke="#293528"></path><path d="M820.3 606.8L394.3 600L379.9 600Z" fill="#4c644a" stroke="#4c644a"></path><path d="M820.3 606.8L379.9 600L340.6 600Z" fill="#435841" stroke="#435841"></path><path d="M820.3 606.8L340.6 600L304.2 600Z" fill="#4c644a" stroke="#4c644a"></path><path d="M820.3 606.8L304.2 600L265.8 600Z" fill="#71966f" stroke="#71966f"></path><path d="M820.3 606.8L265.8 600L227.5 600Z" fill="#293528" stroke="#293528"></path><path d="M820.3 606.8L227.5 600L165.1 600Z" fill="#557053" stroke="#557053"></path><path d="M0 473.7L0 509.8L26.4 513.8Z" fill="#71966f" stroke="#71966f"></path><path d="M900 128.3L822.6 101.5L813.6 170.6Z" fill="#85b182" stroke="#85b182"></path><path d="M872.6 92.3L854.6 56.2L822.6 101.5Z" fill="#4c644a" stroke="#4c644a"></path><path d="M801.6 600.8L813.6 600L766.9 546.7Z" fill="#314030" stroke="#314030"></path><path d="M900 0L827.6 0L854.6 56.2Z" fill="#435841" stroke="#435841"></path><path d="M854.6 56.2L827.6 0L802.3 0Z" fill="#293528" stroke="#293528"></path><path d="M802.3 0L827.6 0L283.2 -4.8Z" fill="#71966f" stroke="#71966f"></path><path d="M900 214.6L900 128.3L820.6 191.8Z" fill="#314030" stroke="#314030"></path><path d="M872.6 92.3L900 51.2L854.6 56.2Z" fill="#3a4c39" stroke="#3a4c39"></path><path d="M78.7 600L820.3 606.8L165.1 600Z" fill="#85b182" stroke="#85b182"></path><path d="M801.6 600.8L820.3 606.8L813.6 600Z" fill="#5e7d5c" stroke="#5e7d5c"></path><path d="M813.6 600L850.3 600L766.9 546.7Z" fill="#5e7d5c" stroke="#5e7d5c"></path><path d="M900 472.7L900 464.5L875.6 469.7Z" fill="#314030" stroke="#314030"></path><path d="M875.6 469.7L900 464.5L849.3 420.2Z" fill="#3a4c39" stroke="#3a4c39"></path><path d="M900 522.8L900 472.7L875.6 469.7Z" fill="#3a4c39" stroke="#3a4c39"></path><path d="M0 600L31.4 600L26.4 513.8Z" fill="#4c644a" stroke="#4c644a"></path><path d="M78.7 600L31.4 600L820.3 606.8Z" fill="#71966f" stroke="#71966f"></path><path d="M900 128.3L900 106.5L872.6 92.3Z" fill="#688965" stroke="#688965"></path><path d="M102.1 -2.8L13.4 0L58.7 0Z" fill="#4c644a" stroke="#4c644a"></path><path d="M58.7 0L-4.6 17.2L83.7 52.2Z" fill="#7ba478" stroke="#7ba478"></path><path d="M820.3 606.8L850.3 600L813.6 600Z" fill="#293528" stroke="#293528"></path><path d="M13.4 0L-4.6 17.2L58.7 0Z" fill="#7ba478" stroke="#7ba478"></path><path d="M0 95.2L-4.6 17.2L0 130.5Z" fill="#293528" stroke="#293528"></path><path d="M0 130.5L-4.6 17.2L0 142.3Z" fill="#688965" stroke="#688965"></path><path d="M0 142.3L-4.6 17.2L0 147.6Z" fill="#71966f" stroke="#71966f"></path><path d="M0 147.6L-4.6 17.2L0 215.8Z" fill="#293528" stroke="#293528"></path><path d="M0 215.8L-4.6 17.2L0 266.9Z" fill="#435841" stroke="#435841"></path><path d="M0 266.9L-4.6 17.2L0 333.2Z" fill="#5e7d5c" stroke="#5e7d5c"></path><path d="M0 333.2L-4.6 17.2L0 349.1Z" fill="#293528" stroke="#293528"></path><path d="M0 349.1L-4.6 17.2L0 458.4Z" fill="#557053" stroke="#557053"></path><path d="M0 458.4L-4.6 17.2L0 462.5Z" fill="#293528" stroke="#293528"></path><path d="M0 462.5L-4.6 17.2L0 473.7Z" fill="#7ba478" stroke="#7ba478"></path><path d="M0 473.7L-4.6 17.2L0 509.8Z" fill="#557053" stroke="#557053"></path><path d="M850.3 600L900 522.8L766.9 546.7Z" fill="#314030" stroke="#314030"></path><path d="M102.1 -2.8L0 0L13.4 0Z" fill="#557053" stroke="#557053"></path><path d="M13.4 0L0 0L-4.6 17.2Z" fill="#4c644a" stroke="#4c644a"></path><path d="M-4.6 17.2L0 600L0 509.8Z" fill="#688965" stroke="#688965"></path><path d="M0 509.8L0 600L26.4 513.8Z" fill="#435841" stroke="#435841"></path><path d="M31.4 600L0 600L820.3 606.8Z" fill="#688965" stroke="#688965"></path><path d="M900 106.5L900 51.2L872.6 92.3Z" fill="#3a4c39" stroke="#3a4c39"></path><path d="M900 51.2L900 0L854.6 56.2Z" fill="#314030" stroke="#314030"></path><path d="M827.6 0L900 0L283.2 -4.8Z" fill="#4c644a" stroke="#4c644a"></path><path d="M820.3 606.8L900 600L850.3 600Z" fill="#435841" stroke="#435841"></path><path d="M850.3 600L900 600L900 522.8Z" fill="#7ba478" stroke="#7ba478"></path></g></svg>