<svg xmlns="http://www.w3.org/2000/svg" fill="none" viewBox="0 0 1440 1024">
  <g clip-path="url(#a)">
    <path fill="#BE9C3F" d="M0 0h1440v1024H0z"/>
    <path fill="#FFE985" d="m70-113 54.375 30.8197L178.253-50.5l.497 62.5-.497 62.5-53.878 31.68L70 137l-54.375-30.82-53.8782-31.68L-38.75 12l.4968-62.5L15.625-82.1803 70-113ZM195 88l54.375 30.82 53.878 31.68.497 62.5-.497 62.5-53.878 31.68L195 338l-54.375-30.82-53.8782-31.68L86.25 213l.4968-62.5 53.8782-31.68L195 88ZM-55.25 89l54.375 30.82 53.8782 31.68L53.5 214l-.4968 62.5L-.875 308.18-55.25 339l-54.375-30.82-53.878-31.68L-164 214l.497-62.5 53.878-31.68L-55.25 89ZM70 289l54.375 30.82 53.878 31.68.497 62.5-.497 62.5-53.878 31.68L70 539l-54.375-30.82-53.8782-31.68-.4968-62.5.4968-62.5 53.8782-31.68L70 289ZM320-113l54.375 30.8197L428.253-50.5l.497 62.5-.497 62.5-53.878 31.68L320 137l-54.375-30.82-53.878-31.68-.497-62.5.497-62.5 53.878-31.6803L320-113ZM445 89l54.375 30.82 53.878 31.68.497 62.5-.497 62.5-53.878 31.68L445 339l-54.375-30.82-53.878-31.68-.497-62.5.497-62.5 53.878-31.68L445 89ZM320 289l54.375 30.82 53.878 31.68.497 62.5-.497 62.5-53.878 31.68L320 539l-54.375-30.82-53.878-31.68-.497-62.5.497-62.5 53.878-31.68L320 289ZM570-113l54.375 30.8197L678.253-50.5l.497 62.5-.497 62.5-53.878 31.68L570 137l-54.375-30.82-53.878-31.68-.497-62.5.497-62.5 53.878-31.6803L570-113ZM695 89l54.375 30.82 53.878 31.68.497 62.5-.497 62.5-53.878 31.68L695 339l-54.375-30.82-53.878-31.68-.497-62.5.497-62.5 53.878-31.68L695 89ZM570 289l54.375 30.82 53.878 31.68.497 62.5-.497 62.5-53.878 31.68L570 539l-54.375-30.82-53.878-31.68-.497-62.5.497-62.5 53.878-31.68L570 289ZM820-113l54.375 30.8197L928.253-50.5l.497 62.5-.497 62.5-53.878 31.68L820 137l-54.375-30.82-53.878-31.68-.497-62.5.497-62.5 53.878-31.6803L820-113ZM945 89l54.375 30.82 53.875 31.68.5 62.5-.5 62.5-53.875 31.68L945 339l-54.375-30.82-53.878-31.68-.497-62.5.497-62.5 53.878-31.68L945 89ZM820 289l54.375 30.82 53.878 31.68.497 62.5-.497 62.5-53.878 31.68L820 539l-54.375-30.82-53.878-31.68-.497-62.5.497-62.5 53.878-31.68L820 289ZM1070-113l54.38 30.8197L1178.25-50.5l.5 62.5-.5 62.5-53.87 31.68L1070 137l-54.38-30.82-53.873-31.68-.497-62.5.497-62.5 53.873-31.6803L1070-113ZM1195 89l54.38 30.82 53.87 31.68.5 62.5-.5 62.5-53.87 31.68L1195 339l-54.38-30.82-53.87-31.68-.5-62.5.5-62.5 53.87-31.68L1195 89ZM1070 289l54.38 30.82 53.87 31.68.5 62.5-.5 62.5-53.87 31.68L1070 539l-54.38-30.82-53.873-31.68-.497-62.5.497-62.5 53.873-31.68L1070 289ZM1320-113l54.38 30.8197L1428.25-50.5l.5 62.5-.5 62.5-53.87 31.68L1320 137l-54.38-30.82-53.87-31.68-.5-62.5.5-62.5 53.87-31.6803L1320-113ZM1445 88l54.38 30.82 53.87 31.68.5 62.5-.5 62.5-53.87 31.68L1445 338l-54.38-30.82-53.87-31.68-.5-62.5.5-62.5 53.87-31.68L1445 88ZM1317 289l54.38 30.82 53.87 31.68.5 62.5-.5 62.5-53.87 31.68L1317 539l-54.38-30.82-53.87-31.68-.5-62.5.5-62.5 53.87-31.68L1317 289ZM192 491l54.375 30.82 53.878 31.68.497 62.5-.497 62.5-53.878 31.68L192 741l-54.375-30.82-53.8782-31.68L83.25 616l.4968-62.5 53.8782-31.68L192 491ZM317 692l54.375 30.82 53.878 31.68.497 62.5-.497 62.5-53.878 31.68L317 942l-54.375-30.82-53.878-31.68-.497-62.5.497-62.5 53.878-31.68L317 692ZM66.75 692l54.375 30.82 53.878 31.68.497 62.5-.497 62.5-53.878 31.68L66.75 942l-54.375-30.82-53.8782-31.68L-42 817l.4968-62.5 53.8782-31.68L66.75 692ZM192 893l54.375 30.82 53.878 31.68.497 62.5-.497 62.5-53.878 31.68L192 1143l-54.375-30.82-53.8782-31.68-.4968-62.5.4968-62.5 53.8782-31.68L192 893ZM442 491l54.375 30.82 53.878 31.68.497 62.5-.497 62.5-53.878 31.68L442 741l-54.375-30.82-53.878-31.68-.497-62.5.497-62.5 53.878-31.68L442 491ZM567 693l54.375 30.82 53.878 31.68.497 62.5-.497 62.5-53.878 31.68L567 943l-54.375-30.82-53.878-31.68-.497-62.5.497-62.5 53.878-31.68L567 693ZM442 893l54.375 30.82 53.878 31.68.497 62.5-.497 62.5-53.878 31.68L442 1143l-54.375-30.82-53.878-31.68-.497-62.5.497-62.5 53.878-31.68L442 893ZM692 491l54.375 30.82 53.878 31.68.497 62.5-.497 62.5-53.878 31.68L692 741l-54.375-30.82-53.878-31.68-.497-62.5.497-62.5 53.878-31.68L692 491ZM817 693l54.375 30.82 53.878 31.68.497 62.5-.497 62.5-53.878 31.68L817 943l-54.375-30.82-53.878-31.68-.497-62.5.497-62.5 53.878-31.68L817 693ZM692 893l54.375 30.82 53.878 31.68.497 62.5-.497 62.5-53.878 31.68L692 1143l-54.375-30.82-53.878-31.68-.497-62.5.497-62.5 53.878-31.68L692 893ZM942 491l54.375 30.82 53.875 31.68.5 62.5-.5 62.5-53.875 31.68L942 741l-54.375-30.82-53.878-31.68-.497-62.5.497-62.5 53.878-31.68L942 491ZM1067 693l54.38 30.82 53.87 31.68.5 62.5-.5 62.5-53.87 31.68L1067 943l-54.38-30.82-53.873-31.68-.497-62.5.497-62.5 53.873-31.68L1067 693ZM942 893l54.375 30.82 53.875 31.68.5 62.5-.5 62.5-53.875 31.68L942 1143l-54.375-30.82-53.878-31.68-.497-62.5.497-62.5 53.878-31.68L942 893ZM1192 491l54.38 30.82 53.87 31.68.5 62.5-.5 62.5-53.87 31.68L1192 741l-54.38-30.82-53.87-31.68-.5-62.5.5-62.5 53.87-31.68L1192 491ZM1317 693l54.38 30.82 53.87 31.68.5 62.5-.5 62.5-53.87 31.68L1317 943l-54.38-30.82-53.87-31.68-.5-62.5.5-62.5 53.87-31.68L1317 693ZM1192 893l54.38 30.82 53.87 31.68.5 62.5-.5 62.5-53.87 31.68L1192 1143l-54.38-30.82-53.87-31.68-.5-62.5.5-62.5 53.87-31.68L1192 893ZM1442 491l54.38 30.82 53.87 31.68.5 62.5-.5 62.5-53.87 31.68L1442 741l-54.38-30.82-53.87-31.68-.5-62.5.5-62.5 53.87-31.68L1442 491ZM1442 893l54.38 30.82 53.87 31.68.5 62.5-.5 62.5-53.87 31.68L1442 1143l-54.38-30.82-53.87-31.68-.5-62.5.5-62.5 53.87-31.68L1442 893ZM-54 491 .375 521.82l53.8782 31.68.4968 62.5-.4968 62.5L.375 710.18-54 741l-54.375-30.82-53.878-31.68-.497-62.5.497-62.5 53.878-31.68L-54 491ZM-52 896l54.375 30.82 53.8782 31.68.4968 62.5-.4968 62.5-53.8782 31.68L-52 1146l-54.375-30.82-53.878-31.68-.497-62.5.497-62.5 53.878-31.68L-52 896Z"/>
  </g>
  <defs>
    <clipPath id="a">
      <path fill="#fff" d="M0 0h1440v1024H0z"/>
    </clipPath>
  </defs>
</svg>
